# xmcd
#
# Track frame offsets: 
#        150
#        16154
#        33679
#        51829
#        69918
#        95583
#        128335
#        147121
#        173978
#        194497
#        209898
#        235724
#        250792
#        261292
#
# Disc length: 3644 seconds
#
# Revision: 0
# Processed by: cddbd v1.5.2PL0 Copyright (c) Steve Scherf et al.
# Submitted via: ExactAudioCopy v0.95b4
#
DISCID=c70e3a0e
DTITLE=The Forrest McDonald Bandd - Turnaround Blues
DYEAR=2014
DGENRE=Blues
TTITLE0=Turnaround Blues
TTITLE1=Checking On My Baby
TTITLE2=River Of Tears
TTITLE3=Cross My Heart
TTITLE4=I'm A Fool
TTITLE5=V8 Ford
TTITLE6=R&R Bye Bye Bye
TTITLE7=Only Love
TTITLE8=Woman Across The Ocean
TTITLE9=Funny Thing Baby
TTITLE10=Now I Know
TTITLE11=Stay Or Walk Away
TTITLE12=Two For The Money (Part 1)
TTITLE13=Two For The Money (Part 2)
EXTD=
EXTT0=
EXTT1=
EXTT2=
EXTT3=
EXTT4=
EXTT5=
EXTT6=
EXTT7=
EXTT8=
EXTT9=
EXTT10=
EXTT11=
EXTT12=
EXTT13=
PLAYORDER=
